<svg width="525" height="665" viewBox="0 0 525 665" fill="none" xmlns="http://www.w3.org/2000/svg">
<g clip-path="url(#clip0_2306_559)">
<path d="M395.438 406.507C352.87 480.237 300.83 539.163 251.124 574.839C201.376 610.544 154.146 622.845 121.061 603.743C87.975 584.641 75.0131 537.588 81.0609 476.653C87.1038 415.768 112.115 341.237 154.683 267.507C197.251 193.778 249.291 134.852 298.997 99.1761C348.745 63.471 395.975 51.1697 429.061 70.2716C462.146 89.3736 475.108 136.427 469.06 197.362C463.017 258.247 438.006 332.778 395.438 406.507Z" stroke="black"/>
<path d="M92 551.089L98.4822 569.701L116 576.589L98.4822 583.476L92 602.089L85.5178 583.476L68 576.589L85.5178 569.701L92 551.089Z" fill="black"/>
<path d="M470 140.089L476.482 158.701L494 165.589L476.482 172.476L470 191.089L463.518 172.476L446 165.589L463.518 158.701L470 140.089Z" fill="black"/>
</g>
<defs>
<clipPath id="clip0_2306_559">
<rect width="528" height="664" fill="white" transform="translate(0 0.088623)"/>
</clipPath>
</defs>
</svg>
