<svg width="375" height="375" viewBox="0 0 375 375" fill="none" xmlns="http://www.w3.org/2000/svg">
<path d="M246.895 109.775C248.518 111.261 250.133 112.773 251.737 114.31C251.164 114.906 251.18 115.853 251.775 116.428C252.922 117.539 254.064 118.662 255.201 119.799C256.338 120.936 257.461 122.078 258.572 123.225C259.147 123.82 260.095 123.836 260.69 123.263C262.227 124.867 263.739 126.482 265.225 128.105C264.614 128.662 264.568 129.608 265.123 130.221C267.284 132.606 269.388 135.01 271.436 137.429C271.971 138.061 272.915 138.14 273.547 137.608C274.974 139.311 276.373 141.022 277.743 142.74C277.096 143.253 276.986 144.195 277.498 144.844C279.496 147.375 281.432 149.919 283.306 152.474C283.795 153.141 284.732 153.286 285.399 152.799C286.707 154.603 287.984 156.412 289.23 158.225C288.548 158.692 288.371 159.622 288.835 160.307C290.647 162.975 292.391 165.652 294.066 168.333C294.505 169.034 295.428 169.248 296.13 168.812C297.298 170.707 298.433 172.604 299.533 174.502C298.816 174.914 298.568 175.828 298.978 176.546C300.58 179.349 302.105 182.151 303.553 184.951C303.933 185.685 304.835 185.973 305.57 185.596C306.584 187.588 307.559 189.578 308.496 191.565C307.747 191.914 307.422 192.804 307.769 193.554C309.126 196.487 310.396 199.412 311.579 202.323C311.891 203.089 312.762 203.458 313.528 203.15C314.353 205.225 315.134 207.293 315.87 209.353C315.091 209.627 314.68 210.48 314.952 211.26C316.017 214.321 316.982 217.361 317.845 220.374C318.072 221.169 318.899 221.629 319.693 221.405C320.288 223.557 320.832 225.696 321.323 227.82C320.518 228.001 320.011 228.799 320.189 229.606C320.888 232.776 321.469 235.907 321.929 238.994C322.051 239.811 322.809 240.375 323.625 240.258C323.93 242.477 324.172 244.673 324.351 246.844C323.53 246.906 322.912 247.621 322.969 248.444C323.194 251.674 323.276 254.843 323.214 257.942C323.197 258.767 323.849 259.449 324.671 259.472C324.592 261.717 324.436 263.926 324.203 266.095C323.386 266 322.644 266.582 322.542 267.4C322.144 270.594 321.572 273.694 320.826 276.69C320.627 277.489 321.109 278.297 321.904 278.504C321.32 280.662 320.644 282.767 319.875 284.815C319.11 284.517 318.246 284.89 317.94 285.654C316.758 288.598 315.375 291.41 313.789 294.08C313.369 294.787 313.596 295.699 314.296 296.126C313.117 298.001 311.837 299.804 310.452 301.533C309.82 301.012 308.884 301.095 308.353 301.723C307.348 302.914 306.289 304.066 305.177 305.178C304.066 306.289 302.914 307.348 301.723 308.354C301.095 308.884 301.012 309.82 301.532 310.453C299.804 311.837 298 313.118 296.126 314.296C295.699 313.597 294.787 313.369 294.08 313.789C291.41 315.375 288.597 316.758 285.654 317.94C284.89 318.247 284.517 319.11 284.815 319.875C282.767 320.644 280.662 321.32 278.504 321.905C278.297 321.11 277.488 320.627 276.689 320.826C273.694 321.573 270.594 322.144 267.399 322.542C266.582 322.644 266 323.387 266.095 324.204C263.925 324.436 261.717 324.592 259.472 324.672C259.449 323.849 258.766 323.197 257.942 323.214C254.843 323.277 251.674 323.194 248.443 322.969C247.62 322.912 246.906 323.53 246.843 324.352C244.673 324.172 242.477 323.93 240.258 323.625C240.375 322.809 239.811 322.051 238.994 321.929C235.907 321.469 232.775 320.889 229.606 320.189C228.799 320.011 228.001 320.518 227.819 321.323C225.696 320.832 223.557 320.288 221.405 319.693C221.629 318.899 221.168 318.072 220.374 317.845C217.361 316.982 214.321 316.017 211.26 314.952C210.48 314.68 209.627 315.091 209.352 315.87C207.293 315.134 205.225 314.353 203.15 313.529C203.458 312.762 203.088 311.891 202.323 311.58C199.411 310.397 196.487 309.126 193.554 307.769C192.803 307.422 191.914 307.747 191.565 308.496C189.578 307.56 187.588 306.584 185.596 305.571C185.973 304.836 185.685 303.933 184.95 303.554C182.151 302.105 179.348 300.58 176.546 298.979C175.828 298.568 174.914 298.817 174.502 299.533C172.604 298.433 170.707 297.298 168.812 296.13C169.248 295.428 169.034 294.505 168.332 294.067C165.652 292.391 162.975 290.647 160.306 288.836C159.622 288.371 158.691 288.548 158.225 289.231C156.412 287.984 154.603 286.707 152.799 285.4C153.286 284.732 153.141 283.795 152.474 283.306C149.919 281.432 147.374 279.496 144.844 277.499C144.194 276.986 143.253 277.096 142.739 277.744C141.022 276.373 139.311 274.974 137.607 273.548C138.14 272.915 138.06 271.971 137.429 271.437C135.01 269.389 132.606 267.284 130.221 265.124C129.608 264.568 128.662 264.614 128.105 265.225C126.482 263.739 124.867 262.228 123.262 260.69C123.836 260.095 123.819 259.147 123.225 258.572C122.078 257.462 120.935 256.338 119.799 255.201C118.662 254.065 117.539 252.922 116.428 251.775C115.853 251.181 114.905 251.164 114.31 251.738C112.773 250.133 111.261 248.519 109.775 246.895C110.386 246.338 110.432 245.392 109.877 244.779C107.716 242.394 105.612 239.99 103.563 237.571C103.029 236.94 102.085 236.86 101.452 237.393C100.026 235.689 98.6273 233.978 97.2566 232.261C97.904 231.747 98.0139 230.806 97.5015 230.156C95.5042 227.626 93.568 225.081 91.6939 222.526C91.2047 221.859 90.2684 221.714 89.6006 222.201C88.2928 220.397 87.0157 218.588 85.7696 216.775C86.452 216.309 86.629 215.378 86.1646 214.694C84.3528 212.025 82.6088 209.348 80.9335 206.668C80.4952 205.966 79.5724 205.752 78.8703 206.188C77.7018 204.293 76.5674 202.396 75.4673 200.498C76.1834 200.086 76.4316 199.172 76.0215 198.454C74.4204 195.652 72.8951 192.849 71.4466 190.05C71.0667 189.315 70.1645 189.027 69.4295 189.404C68.4157 187.412 67.4405 185.422 66.5043 183.435C67.2527 183.086 67.5781 182.197 67.2311 181.446C65.8742 178.513 64.6036 175.589 63.4205 172.677C63.1094 171.912 62.2377 171.542 61.4715 171.85C60.6468 169.775 59.8663 167.707 59.1304 165.648C59.909 165.373 60.3198 164.52 60.0481 163.74C58.9829 160.679 58.0181 157.639 57.1551 154.626C56.9277 153.832 56.1011 153.371 55.3067 153.595C54.7117 151.443 54.1683 149.304 53.6772 147.181C54.4818 146.999 54.9892 146.201 54.8112 145.394C54.1116 142.225 53.531 139.093 53.071 136.006C52.9493 135.189 52.191 134.625 51.3748 134.742C51.0704 132.524 50.828 130.327 50.6485 128.157C51.4701 128.094 52.0883 127.38 52.0309 126.557C51.8057 123.326 51.7236 120.157 51.7863 117.058C51.803 116.234 51.1513 115.551 50.3284 115.528C50.4079 113.284 50.5637 111.075 50.7965 108.905C51.6135 109 52.3558 108.418 52.4578 107.601C52.8562 104.406 53.4275 101.306 54.1737 98.3108C54.3727 97.5118 53.8905 96.7029 53.0954 96.4964C53.6798 94.338 54.356 92.233 55.125 90.1856C55.8899 90.4829 56.7535 90.1099 57.0601 89.3464C58.2422 86.4028 59.625 83.5899 61.2113 80.92C61.6312 80.2132 61.4036 79.3014 60.7041 78.874C61.8826 76.9997 63.1633 75.1961 64.5476 73.4677C65.1803 73.9885 66.116 73.9051 66.6464 73.2772C67.6522 72.0864 68.7108 70.9343 69.8224 69.8227C70.9341 68.711 72.0862 67.6524 73.277 66.6466C73.9049 66.1162 73.9882 65.1805 73.4675 64.5478C75.1958 63.1635 76.9995 61.8828 78.8738 60.7043C79.3012 61.4038 80.213 61.6314 80.9198 61.2115C83.5897 59.6252 86.4026 58.2424 89.3462 57.0603C90.1097 56.7537 90.4827 55.8901 90.1854 55.1252C92.2328 54.3562 94.3378 53.68 96.4962 53.0956C96.7027 53.8907 97.5116 54.3729 98.3106 54.1738C101.306 53.4277 104.406 52.8564 107.6 52.458C108.418 52.356 109 51.6137 108.905 50.7967C111.074 50.5639 113.283 50.4081 115.528 50.3286C115.551 51.1515 116.234 51.8032 117.058 51.7865C120.157 51.7238 123.326 51.8059 126.556 52.0311C127.38 52.0885 128.094 51.4703 128.156 50.6487C130.327 50.8282 132.523 51.0706 134.742 51.375C134.625 52.1912 135.189 52.9495 136.006 53.0712C139.093 53.5312 142.224 54.1118 145.394 54.8114C146.201 54.9894 146.999 54.482 147.181 53.6774C149.304 54.1685 151.443 54.7119 153.595 55.3069C153.371 56.1013 153.832 56.9279 154.626 57.1553C157.639 58.0183 160.679 58.9831 163.74 60.0484C164.52 60.32 165.373 59.9092 165.647 59.1306C167.707 59.8665 169.775 60.647 171.85 61.4717C171.542 62.2379 171.912 63.1096 172.677 63.4208C175.588 64.6038 178.513 65.8744 181.446 67.2313C182.196 67.5784 183.086 67.2529 183.435 66.5045C185.422 67.4407 187.412 68.4159 189.404 69.4298C189.027 70.1647 189.315 71.0669 190.049 71.4468C192.849 72.8953 195.652 74.4206 198.454 76.0217C199.172 76.4319 200.086 76.1836 200.498 75.4675C202.396 76.5676 204.293 77.702 206.188 78.8705C205.752 79.5726 205.966 80.4954 206.667 80.9337C209.348 82.6091 212.025 84.3531 214.694 86.1648C215.378 86.6293 216.309 86.4523 216.775 85.7698C218.588 87.0159 220.397 88.293 222.201 89.6008C221.714 90.2686 221.859 91.2049 222.526 91.6941C225.081 93.5682 227.625 95.5044 230.156 97.5018C230.805 98.0141 231.747 97.9042 232.26 97.2568C233.978 98.6275 235.689 100.026 237.392 101.453C236.86 102.085 236.939 103.029 237.571 103.564C239.99 105.612 242.394 107.716 244.779 109.877C245.392 110.432 246.338 110.386 246.895 109.775Z" 
        stroke="url(#paint0_linear_2328_17332)" 
        stroke-width="3" 
        stroke-linecap="round" 
        stroke-linejoin="round"
        stroke-dasharray="10" 
        stroke-dashoffset="10">
        </path>
<path  d="M265.225 246.895C263.739 248.518 262.227 250.133 260.69 251.738C260.095 251.164 259.147 251.181 258.572 251.775C257.461 252.922 256.338 254.064 255.201 255.201C254.064 256.338 252.922 257.461 251.775 258.572C251.181 259.147 251.164 260.095 251.738 260.69C250.133 262.227 248.518 263.739 246.895 265.225C246.338 264.614 245.392 264.568 244.779 265.123C242.394 267.284 239.99 269.388 237.571 271.436C236.939 271.971 236.86 272.915 237.392 273.547C235.689 274.974 233.978 276.373 232.26 277.743C231.747 277.096 230.805 276.986 230.156 277.498C227.625 279.496 225.081 281.432 222.526 283.306C221.859 283.795 221.714 284.732 222.201 285.399C220.397 286.707 218.588 287.984 216.775 289.23C216.309 288.548 215.378 288.371 214.694 288.835C212.025 290.647 209.348 292.391 206.667 294.067C205.966 294.505 205.752 295.428 206.188 296.13C204.293 297.298 202.396 298.433 200.498 299.533C200.086 298.817 199.172 298.568 198.454 298.979C195.652 300.58 192.849 302.105 190.049 303.553C189.315 303.933 189.027 304.835 189.404 305.57C187.412 306.584 185.422 307.56 183.435 308.496C183.086 307.747 182.196 307.422 181.446 307.769C178.513 309.126 175.588 310.396 172.677 311.579C171.912 311.891 171.542 312.762 171.85 313.528C169.775 314.353 167.707 315.134 165.647 315.87C165.373 315.091 164.52 314.68 163.74 314.952C160.679 316.017 157.639 316.982 154.626 317.845C153.832 318.072 153.371 318.899 153.595 319.693C151.443 320.288 149.304 320.832 147.181 321.323C146.999 320.518 146.201 320.011 145.394 320.189C142.225 320.888 139.093 321.469 136.006 321.929C135.189 322.051 134.625 322.809 134.742 323.625C132.523 323.93 130.327 324.172 128.156 324.351C128.094 323.53 127.38 322.912 126.556 322.969C123.326 323.194 120.157 323.276 117.058 323.214C116.234 323.197 115.551 323.849 115.528 324.672C113.283 324.592 111.074 324.436 108.905 324.203C109 323.386 108.418 322.644 107.6 322.542C104.406 322.144 101.306 321.572 98.3106 320.826C97.5117 320.627 96.7027 321.109 96.4963 321.905C94.3379 321.32 92.2329 320.644 90.1854 319.875C90.4827 319.11 90.1097 318.246 89.3462 317.94C86.4027 316.758 83.5897 315.375 80.9199 313.789C80.2131 313.369 79.3013 313.596 78.8739 314.296C76.9995 313.117 75.1959 311.837 73.4676 310.452C73.9883 309.82 73.9049 308.884 73.2771 308.354C72.0862 307.348 70.9342 306.289 69.8225 305.178C68.7108 304.066 67.6523 302.914 66.6464 301.723C66.1161 301.095 65.1804 301.012 64.5476 301.532C63.1634 299.804 61.8826 298 60.7041 296.126C61.4037 295.699 61.6312 294.787 61.2113 294.08C59.6251 291.41 58.2423 288.597 57.0601 285.654C56.7535 284.89 55.8899 284.517 55.125 284.815C54.356 282.767 53.6799 280.662 53.0954 278.504C53.8905 278.297 54.3727 277.488 54.1737 276.689C53.4275 273.694 52.8562 270.594 52.4578 267.4C52.3558 266.582 51.6135 266 50.7965 266.095C50.5637 263.926 50.4079 261.717 50.3284 259.472C51.1513 259.449 51.8031 258.766 51.7864 257.942C51.7236 254.843 51.8057 251.674 52.0309 248.444C52.0883 247.62 51.4702 246.906 50.6486 246.844C50.8281 244.673 51.0704 242.477 51.3748 240.258C52.191 240.375 52.9493 239.811 53.071 238.994C53.531 235.907 54.1116 232.775 54.8112 229.606C54.9892 228.799 54.4819 228.001 53.6772 227.819C54.1684 225.696 54.7117 223.557 55.3067 221.405C56.1011 221.629 56.9277 221.168 57.1552 220.374C58.0182 217.361 58.983 214.321 60.0482 211.26C60.3198 210.48 59.909 209.627 59.1304 209.353C59.8663 207.293 60.6468 205.225 61.4716 203.15C62.2377 203.458 63.1094 203.088 63.4206 202.323C64.6036 199.412 65.8742 196.487 67.2311 193.554C67.5782 192.803 67.2528 191.914 66.5043 191.565C67.4405 189.578 68.4157 187.588 69.4296 185.596C70.1646 185.973 71.0667 185.685 71.4467 184.951C72.8951 182.151 74.4204 179.348 76.0215 176.546C76.4317 175.828 76.1835 174.914 75.4673 174.502C76.5674 172.604 77.7019 170.707 78.8704 168.812C79.5724 169.248 80.4953 169.034 80.9335 168.332C82.6089 165.652 84.3529 162.975 86.1646 160.306C86.6291 159.622 86.4521 158.691 85.7696 158.225C87.0158 156.412 88.2928 154.603 89.6006 152.799C90.2684 153.286 91.2048 153.141 91.6939 152.474C93.568 149.919 95.5042 147.375 97.5016 144.844C98.014 144.194 97.904 143.253 97.2566 142.739C98.6273 141.022 100.026 139.311 101.453 137.608C102.085 138.14 103.029 138.061 103.564 137.429C105.612 135.01 107.716 132.606 109.877 130.221C110.432 129.608 110.386 128.662 109.775 128.105C111.261 126.482 112.773 124.867 114.31 123.262C114.905 123.836 115.853 123.819 116.428 123.225C117.539 122.078 118.662 120.936 119.799 119.799C120.935 118.662 122.078 117.539 123.225 116.428C123.819 115.853 123.836 114.905 123.262 114.31C124.867 112.773 126.482 111.261 128.105 109.775C128.662 110.386 129.608 110.432 130.221 109.877C132.606 107.716 135.01 105.612 137.429 103.564C138.061 103.029 138.14 102.085 137.608 101.453C139.311 100.026 141.022 98.6273 142.739 97.2566C143.253 97.9041 144.194 98.014 144.844 97.5016C147.374 95.5042 149.919 93.568 152.474 91.6939C153.141 91.2048 153.286 90.2684 152.799 89.6006C154.603 88.2928 156.412 87.0157 158.225 85.7696C158.691 86.4521 159.622 86.6291 160.306 86.1646C162.975 84.3529 165.652 82.6089 168.332 80.9335C169.034 80.4952 169.248 79.5724 168.812 78.8703C170.707 77.7019 172.604 76.5674 174.502 75.4673C174.914 76.1834 175.828 76.4317 176.546 76.0215C179.348 74.4204 182.151 72.8951 184.951 71.4466C185.685 71.0667 185.973 70.1645 185.596 69.4296C187.588 68.4157 189.578 67.4405 191.565 66.5043C191.914 67.2527 192.803 67.5782 193.554 67.2311C196.487 65.8742 199.412 64.6036 202.323 63.4206C203.088 63.1094 203.458 62.2377 203.15 61.4715C205.225 60.6468 207.293 59.8663 209.353 59.1304C209.627 59.909 210.48 60.3198 211.26 60.0482C214.321 58.9829 217.361 58.0182 220.374 57.1551C221.168 56.9277 221.629 56.1011 221.405 55.3067C223.557 54.7117 225.696 54.1683 227.819 53.6772C228.001 54.4819 228.799 54.9892 229.606 54.8112C232.775 54.1116 235.907 53.531 238.994 53.071C239.811 52.9493 240.375 52.191 240.258 51.3748C242.477 51.0704 244.673 50.8281 246.844 50.6486C246.906 51.4702 247.62 52.0883 248.443 52.0309C251.674 51.8057 254.843 51.7236 257.942 51.7864C258.766 51.8031 259.449 51.1513 259.472 50.3284C261.717 50.4079 263.925 50.5637 266.095 50.7965C266 51.6136 266.582 52.3558 267.399 52.4578C270.594 52.8562 273.694 53.4275 276.689 54.1737C277.488 54.3727 278.297 53.8906 278.504 53.0954C280.662 53.6799 282.767 54.356 284.815 55.125C284.517 55.8899 284.89 56.7535 285.654 57.0601C288.597 58.2423 291.41 59.625 294.08 61.2113C294.787 61.6312 295.699 61.4037 296.126 60.7041C298 61.8826 299.804 63.1634 301.532 64.5476C301.012 65.1803 301.095 66.116 301.723 66.6464C302.914 67.6523 304.066 68.7108 305.177 69.8225C306.289 70.9342 307.348 72.0862 308.354 73.277C308.884 73.9049 309.82 73.9883 310.452 73.4675C311.837 75.1959 313.117 76.9995 314.296 78.8739C313.596 79.3013 313.369 80.2131 313.789 80.9199C315.375 83.5897 316.758 86.4027 317.94 89.3462C318.246 90.1097 319.11 90.4827 319.875 90.1854C320.644 92.2329 321.32 94.3379 321.904 96.4963C321.109 96.7027 320.627 97.5117 320.826 98.3106C321.572 101.306 322.144 104.406 322.542 107.6C322.644 108.418 323.386 109 324.203 108.905C324.436 111.074 324.592 113.283 324.672 115.528C323.849 115.551 323.197 116.234 323.214 117.058C323.276 120.157 323.194 123.326 322.969 126.556C322.912 127.38 323.53 128.094 324.351 128.156C324.172 130.327 323.93 132.523 323.625 134.742C322.809 134.625 322.051 135.189 321.929 136.006C321.469 139.093 320.888 142.225 320.189 145.394C320.011 146.201 320.518 146.999 321.323 147.181C320.832 149.304 320.288 151.443 319.693 153.595C318.899 153.371 318.072 153.832 317.845 154.626C316.982 157.639 316.017 160.679 314.952 163.74C314.68 164.52 315.091 165.373 315.87 165.647C315.134 167.707 314.353 169.775 313.528 171.85C312.762 171.542 311.891 171.912 311.579 172.677C310.396 175.588 309.126 178.513 307.769 181.446C307.422 182.197 307.747 183.086 308.496 183.435C307.559 185.422 306.584 187.412 305.57 189.404C304.835 189.027 303.933 189.315 303.553 190.049C302.105 192.849 300.58 195.652 298.978 198.454C298.568 199.172 298.816 200.086 299.533 200.498C298.433 202.396 297.298 204.293 296.13 206.188C295.428 205.752 294.505 205.966 294.066 206.668C292.391 209.348 290.647 212.025 288.835 214.694C288.371 215.378 288.548 216.309 289.23 216.775C287.984 218.588 286.707 220.397 285.399 222.201C284.732 221.714 283.795 221.859 283.306 222.526C281.432 225.081 279.496 227.625 277.498 230.156C276.986 230.806 277.096 231.747 277.743 232.261C276.373 233.978 274.974 235.689 273.547 237.392C272.915 236.86 271.971 236.939 271.436 237.571C269.388 239.99 267.284 242.394 265.123 244.779C264.568 245.392 264.614 246.338 265.225 246.895Z" stroke="url(#paint1_linear_2328_17332)" stroke-width="3" stroke-linecap="round" stroke-linejoin="round" stroke-dasharray="10 10"/>
<path d="M174.538 90.5415C176.737 90.4443 178.948 90.3716 181.169 90.3239C181.185 91.1504 181.867 91.8089 182.694 91.7953C184.29 91.7692 185.892 91.7561 187.5 91.7561C189.107 91.7561 190.709 91.7692 192.306 91.7953C193.133 91.8089 193.815 91.1504 193.83 90.3239C196.052 90.3716 198.263 90.4443 200.461 90.5415C200.423 91.3672 201.06 92.069 201.886 92.1098C205.1 92.2685 208.287 92.4799 211.446 92.7425C212.271 92.8111 212.995 92.1995 213.065 91.3759C215.278 91.5717 217.477 91.7925 219.661 92.0378C219.567 92.8589 220.154 93.6022 220.976 93.6989C224.178 94.0761 227.346 94.5063 230.478 94.9879C231.295 95.1135 232.06 94.5539 232.188 93.7374C234.388 94.0883 236.571 94.4645 238.734 94.8654C238.581 95.6776 239.114 96.4609 239.926 96.6163C243.094 97.2223 246.22 97.8817 249.3 98.5926C250.106 98.7786 250.91 98.2774 251.098 97.4727C253.264 97.9865 255.408 98.5257 257.528 99.0897C257.313 99.8875 257.784 100.709 258.581 100.927C261.695 101.777 264.756 102.68 267.759 103.635C268.547 103.886 269.389 103.452 269.642 102.665C271.767 103.357 273.864 104.074 275.931 104.817C275.649 105.594 276.047 106.453 276.823 106.738C279.857 107.852 282.823 109.022 285.718 110.244C286.48 110.565 287.357 110.21 287.681 109.45C289.732 110.334 291.746 111.245 293.723 112.181C293.366 112.926 293.679 113.819 294.423 114.179C297.34 115.59 300.172 117.057 302.913 118.578C303.635 118.979 304.545 118.72 304.949 118C306.892 119.101 308.788 120.229 310.637 121.383C310.196 122.081 310.402 123.004 311.098 123.448C313.834 125.195 316.459 126.999 318.967 128.856C319.631 129.348 320.566 129.21 321.06 128.55C322.844 129.904 324.569 131.286 326.231 132.694C325.694 133.319 325.762 134.261 326.384 134.802C328.828 136.928 331.127 139.11 333.274 141.346C333.845 141.941 334.788 141.963 335.386 141.397C336.918 143.04 338.369 144.712 339.739 146.411C339.094 146.922 338.98 147.858 339.487 148.508C341.464 151.049 343.252 153.645 344.842 156.29C345.266 156.996 346.179 157.227 346.888 156.811C348 158.75 349.011 160.717 349.915 162.709C349.164 163.039 348.817 163.914 349.14 164.67C350.385 167.588 351.397 170.554 352.163 173.564C352.366 174.361 353.171 174.844 353.968 174.652C354.46 176.811 354.83 178.992 355.073 181.193C354.258 181.272 353.655 181.992 353.724 182.811C353.855 184.365 353.921 185.928 353.921 187.5C353.921 189.072 353.855 190.635 353.724 192.189C353.655 193.008 354.258 193.728 355.073 193.807C354.83 196.008 354.46 198.189 353.968 200.348C353.171 200.155 352.366 200.639 352.163 201.436C351.397 204.446 350.385 207.412 349.14 210.33C348.817 211.086 349.164 211.961 349.915 212.291C349.011 214.283 348 216.25 346.888 218.189C346.179 217.773 345.266 218.004 344.842 218.709C343.252 221.355 341.464 223.951 339.487 226.492C338.98 227.142 339.094 228.078 339.739 228.589C338.369 230.288 336.918 231.96 335.387 233.603C334.789 233.037 333.845 233.059 333.274 233.654C331.127 235.889 328.828 238.072 326.385 240.197C325.762 240.739 325.694 241.681 326.231 242.306C324.569 243.714 322.845 245.096 321.06 246.449C320.566 245.79 319.631 245.652 318.967 246.144C316.459 248.001 313.834 249.805 311.098 251.552C310.402 251.996 310.196 252.919 310.637 253.617C308.788 254.771 306.892 255.899 304.949 257C304.545 256.28 303.635 256.021 302.913 256.422C300.172 257.943 297.34 259.41 294.423 260.821C293.679 261.181 293.366 262.074 293.723 262.819C291.746 263.755 289.732 264.666 287.681 265.55C287.357 264.79 286.48 264.435 285.718 264.756C282.823 265.978 279.857 267.148 276.823 268.262C276.047 268.547 275.649 269.406 275.931 270.183C273.864 270.926 271.767 271.643 269.642 272.335C269.389 271.548 268.547 271.114 267.759 271.365C264.756 272.32 261.695 273.223 258.581 274.073C257.784 274.291 257.313 275.112 257.528 275.91C255.408 276.474 253.264 277.013 251.098 277.527C250.91 276.723 250.106 276.221 249.3 276.407C246.22 277.118 243.094 277.778 239.926 278.384C239.114 278.539 238.581 279.322 238.734 280.135C236.571 280.535 234.388 280.912 232.188 281.263C232.06 280.446 231.295 279.886 230.478 280.012C227.346 280.494 224.178 280.924 220.976 281.301C220.154 281.398 219.567 282.141 219.661 282.962C217.477 283.208 215.278 283.428 213.065 283.624C212.995 282.8 212.271 282.189 211.447 282.257C208.287 282.52 205.1 282.731 201.886 282.89C201.06 282.931 200.423 283.633 200.461 284.459C198.263 284.556 196.052 284.628 193.83 284.676C193.815 283.85 193.133 283.191 192.306 283.205C190.709 283.231 189.107 283.244 187.5 283.244C185.892 283.244 184.29 283.231 182.694 283.205C181.867 283.191 181.185 283.85 181.169 284.676C178.948 284.628 176.737 284.556 174.538 284.459C174.577 283.633 173.94 282.931 173.114 282.89C169.9 282.731 166.712 282.52 163.553 282.257C162.729 282.189 162.005 282.8 161.934 283.624C159.721 283.428 157.522 283.208 155.339 282.962C155.433 282.141 154.845 281.398 154.024 281.301C150.822 280.924 147.654 280.494 144.522 280.012C143.704 279.886 142.94 280.446 142.812 281.263C140.611 280.912 138.429 280.535 136.266 280.135C136.419 279.322 135.886 278.539 135.074 278.384C131.906 277.778 128.78 277.118 125.699 276.407C124.894 276.221 124.09 276.723 123.902 277.527C121.735 277.013 119.592 276.474 117.472 275.91C117.687 275.112 117.216 274.291 116.418 274.073C113.305 273.223 110.244 272.32 107.24 271.365C106.453 271.114 105.611 271.548 105.358 272.335C103.232 271.643 101.136 270.926 99.0687 270.183C99.3509 269.406 98.9522 268.547 98.1762 268.262C95.1426 267.148 92.1762 265.978 89.2812 264.756C88.5198 264.435 87.6422 264.79 87.3182 265.55C85.2679 264.666 83.2536 263.755 81.2768 262.819C81.6332 262.074 81.3207 261.181 80.5768 260.821C77.6593 259.41 74.8275 257.943 72.0866 256.422C71.3642 256.021 70.4542 256.28 70.0507 257C68.1081 255.899 66.2116 254.771 64.3628 253.617C64.8032 252.919 64.5976 251.996 63.9015 251.552C61.1654 249.805 58.5404 248.001 56.0324 246.144C55.3689 245.652 54.4338 245.79 53.9394 246.45C52.1552 245.096 50.431 243.714 48.7691 242.306C49.3058 241.681 49.2378 240.739 48.6152 240.198C46.1714 238.072 43.8725 235.89 41.7259 233.654C41.1547 233.059 40.2112 233.037 39.6132 233.603C38.0821 231.96 36.6303 230.288 35.2608 228.589C35.9056 228.078 36.0193 227.142 35.5131 226.492C33.536 223.951 31.7478 221.355 30.1575 218.71C29.7333 218.004 28.8204 217.773 28.1121 218.189C26.9992 216.25 25.9888 214.283 25.0848 212.291C25.8359 211.961 26.1828 211.086 25.8598 210.33C24.6142 207.412 23.603 204.446 22.8368 201.436C22.6339 200.639 21.8282 200.156 21.0314 200.348C20.5393 198.189 20.1696 196.008 19.9263 193.807C20.7419 193.728 21.3446 193.008 21.2757 192.189C21.1449 190.635 21.0787 189.072 21.0787 187.5C21.0787 185.928 21.1449 184.365 21.2757 182.811C21.3446 181.992 20.7419 181.272 19.9263 181.193C20.1696 178.992 20.5393 176.811 21.0314 174.652C21.8282 174.844 22.6339 174.361 22.8368 173.564C23.603 170.554 24.6142 167.588 25.8598 164.67C26.1828 163.914 25.8359 163.039 25.0848 162.709C25.9888 160.717 26.9992 158.75 28.1121 156.811C28.8204 157.227 29.7333 156.996 30.1575 156.29C31.7478 153.645 33.536 151.049 35.5131 148.508C36.0193 147.858 35.9056 146.922 35.2608 146.411C36.6303 144.712 38.0821 143.04 39.6132 141.397C40.2112 141.963 41.1547 141.941 41.7259 141.346C43.8725 139.11 46.1714 136.928 48.6152 134.802C49.2378 134.261 49.3058 133.319 48.769 132.694C50.431 131.286 52.1552 129.904 53.9394 128.55C54.4338 129.21 55.3689 129.348 56.0324 128.856C58.5404 126.999 61.1654 125.195 63.9015 123.448C64.5977 123.004 64.8032 122.081 64.3628 121.383C66.2116 120.229 68.1081 119.101 70.0507 118C70.4542 118.72 71.3642 118.979 72.0866 118.578C74.8275 117.057 77.6593 115.59 80.5768 114.179C81.3208 113.819 81.6332 112.926 81.2768 112.181C83.2536 111.245 85.2679 110.334 87.3182 109.45C87.6422 110.21 88.5198 110.565 89.2812 110.244C92.1762 109.022 95.1426 107.852 98.1763 106.738C98.9522 106.453 99.3509 105.594 99.0687 104.817C101.136 104.074 103.232 103.357 105.358 102.665C105.611 103.452 106.453 103.886 107.24 103.635C110.244 102.68 113.305 101.777 116.418 100.927C117.216 100.709 117.687 99.8875 117.472 99.0897C119.592 98.5257 121.735 97.9865 123.902 97.4727C124.09 98.2774 124.894 98.7786 125.699 98.5926C128.78 97.8817 131.906 97.2223 135.074 96.6163C135.886 96.4609 136.419 95.6776 136.266 94.8654C138.429 94.4645 140.611 94.0883 142.812 93.7374C142.94 94.5539 143.704 95.1136 144.522 94.9879C147.654 94.5063 150.822 94.0761 154.024 93.6989C154.845 93.6022 155.433 92.8589 155.339 92.0378C157.522 91.7925 159.721 91.5717 161.934 91.3759C162.005 92.1995 162.729 92.8111 163.553 92.7425C166.712 92.4799 169.9 92.2685 173.114 92.1098C173.94 92.069 174.577 91.3672 174.538 90.5415Z" stroke="#D9D9D9" stroke-width="3" stroke-linecap="round" stroke-linejoin="round" stroke-dasharray="10 10"/>
<path d="M174.538 90.5415C176.737 90.4443 178.948 90.3716 181.169 90.3239C181.185 91.1504 181.867 91.8089 182.694 91.7953C184.29 91.7692 185.892 91.7561 187.5 91.7561C189.107 91.7561 190.709 91.7692 192.306 91.7953C193.133 91.8089 193.815 91.1504 193.83 90.3239C196.052 90.3716 198.263 90.4443 200.461 90.5415C200.423 91.3672 201.06 92.069 201.886 92.1098C205.1 92.2685 208.287 92.4799 211.446 92.7425C212.271 92.8111 212.995 92.1995 213.065 91.3759C215.278 91.5717 217.477 91.7925 219.661 92.0378C219.567 92.8589 220.154 93.6022 220.976 93.6989C224.178 94.0761 227.346 94.5063 230.478 94.9879C231.295 95.1135 232.06 94.5539 232.188 93.7374C234.388 94.0883 236.571 94.4645 238.734 94.8654C238.581 95.6776 239.114 96.4609 239.926 96.6163C243.094 97.2223 246.22 97.8817 249.3 98.5926C250.106 98.7786 250.91 98.2774 251.098 97.4727C253.264 97.9865 255.408 98.5257 257.528 99.0897C257.313 99.8875 257.784 100.709 258.581 100.927C261.695 101.777 264.756 102.68 267.759 103.635C268.547 103.886 269.389 103.452 269.642 102.665C271.767 103.357 273.864 104.074 275.931 104.817C275.649 105.594 276.047 106.453 276.823 106.738C279.857 107.852 282.823 109.022 285.718 110.244C286.48 110.565 287.357 110.21 287.681 109.45C289.732 110.334 291.746 111.245 293.723 112.181C293.366 112.926 293.679 113.819 294.423 114.179C297.34 115.59 300.172 117.057 302.913 118.578C303.635 118.979 304.545 118.72 304.949 118C306.892 119.101 308.788 120.229 310.637 121.383C310.196 122.081 310.402 123.004 311.098 123.448C313.834 125.195 316.459 126.999 318.967 128.856C319.631 129.348 320.566 129.21 321.06 128.55C322.844 129.904 324.569 131.286 326.231 132.694C325.694 133.319 325.762 134.261 326.384 134.802C328.828 136.928 331.127 139.11 333.274 141.346C333.845 141.941 334.788 141.963 335.386 141.397C336.918 143.04 338.369 144.712 339.739 146.411C339.094 146.922 338.98 147.858 339.487 148.508C341.464 151.049 343.252 153.645 344.842 156.29C345.266 156.996 346.179 157.227 346.888 156.811C348 158.75 349.011 160.717 349.915 162.709C349.164 163.039 348.817 163.914 349.14 164.67C350.385 167.588 351.397 170.554 352.163 173.564C352.366 174.361 353.171 174.844 353.968 174.652C354.46 176.811 354.83 178.992 355.073 181.193C354.258 181.272 353.655 181.992 353.724 182.811C353.855 184.365 353.921 185.928 353.921 187.5C353.921 189.072 353.855 190.635 353.724 192.189C353.655 193.008 354.258 193.728 355.073 193.807C354.83 196.008 354.46 198.189 353.968 200.348C353.171 200.155 352.366 200.639 352.163 201.436C351.397 204.446 350.385 207.412 349.14 210.33C348.817 211.086 349.164 211.961 349.915 212.291C349.011 214.283 348 216.25 346.888 218.189C346.179 217.773 345.266 218.004 344.842 218.709C343.252 221.355 341.464 223.951 339.487 226.492C338.98 227.142 339.094 228.078 339.739 228.589C338.369 230.288 336.918 231.96 335.387 233.603C334.789 233.037 333.845 233.059 333.274 233.654C331.127 235.889 328.828 238.072 326.385 240.197C325.762 240.739 325.694 241.681 326.231 242.306C324.569 243.714 322.845 245.096 321.06 246.449C320.566 245.79 319.631 245.652 318.967 246.144C316.459 248.001 313.834 249.805 311.098 251.552C310.402 251.996 310.196 252.919 310.637 253.617C308.788 254.771 306.892 255.899 304.949 257C304.545 256.28 303.635 256.021 302.913 256.422C300.172 257.943 297.34 259.41 294.423 260.821C293.679 261.181 293.366 262.074 293.723 262.819C291.746 263.755 289.732 264.666 287.681 265.55C287.357 264.79 286.48 264.435 285.718 264.756C282.823 265.978 279.857 267.148 276.823 268.262C276.047 268.547 275.649 269.406 275.931 270.183C273.864 270.926 271.767 271.643 269.642 272.335C269.389 271.548 268.547 271.114 267.759 271.365C264.756 272.32 261.695 273.223 258.581 274.073C257.784 274.291 257.313 275.112 257.528 275.91C255.408 276.474 253.264 277.013 251.098 277.527C250.91 276.723 250.106 276.221 249.3 276.407C246.22 277.118 243.094 277.778 239.926 278.384C239.114 278.539 238.581 279.322 238.734 280.135C236.571 280.535 234.388 280.912 232.188 281.263C232.06 280.446 231.295 279.886 230.478 280.012C227.346 280.494 224.178 280.924 220.976 281.301C220.154 281.398 219.567 282.141 219.661 282.962C217.477 283.208 215.278 283.428 213.065 283.624C212.995 282.8 212.271 282.189 211.447 282.257C208.287 282.52 205.1 282.731 201.886 282.89C201.06 282.931 200.423 283.633 200.461 284.459C198.263 284.556 196.052 284.628 193.83 284.676C193.815 283.85 193.133 283.191 192.306 283.205C190.709 283.231 189.107 283.244 187.5 283.244C185.892 283.244 184.29 283.231 182.694 283.205C181.867 283.191 181.185 283.85 181.169 284.676C178.948 284.628 176.737 284.556 174.538 284.459C174.577 283.633 173.94 282.931 173.114 282.89C169.9 282.731 166.712 282.52 163.553 282.257C162.729 282.189 162.005 282.8 161.934 283.624C159.721 283.428 157.522 283.208 155.339 282.962C155.433 282.141 154.845 281.398 154.024 281.301C150.822 280.924 147.654 280.494 144.522 280.012C143.704 279.886 142.94 280.446 142.812 281.263C140.611 280.912 138.429 280.535 136.266 280.135C136.419 279.322 135.886 278.539 135.074 278.384C131.906 277.778 128.78 277.118 125.699 276.407C124.894 276.221 124.09 276.723 123.902 277.527C121.735 277.013 119.592 276.474 117.472 275.91C117.687 275.112 117.216 274.291 116.418 274.073C113.305 273.223 110.244 272.32 107.24 271.365C106.453 271.114 105.611 271.548 105.358 272.335C103.232 271.643 101.136 270.926 99.0687 270.183C99.3509 269.406 98.9522 268.547 98.1762 268.262C95.1426 267.148 92.1762 265.978 89.2812 264.756C88.5198 264.435 87.6422 264.79 87.3182 265.55C85.2679 264.666 83.2536 263.755 81.2768 262.819C81.6332 262.074 81.3207 261.181 80.5768 260.821C77.6593 259.41 74.8275 257.943 72.0866 256.422C71.3642 256.021 70.4542 256.28 70.0507 257C68.1081 255.899 66.2116 254.771 64.3628 253.617C64.8032 252.919 64.5976 251.996 63.9015 251.552C61.1654 249.805 58.5404 248.001 56.0324 246.144C55.3689 245.652 54.4338 245.79 53.9394 246.45C52.1552 245.096 50.431 243.714 48.7691 242.306C49.3058 241.681 49.2378 240.739 48.6152 240.198C46.1714 238.072 43.8725 235.89 41.7259 233.654C41.1547 233.059 40.2112 233.037 39.6132 233.603C38.0821 231.96 36.6303 230.288 35.2608 228.589C35.9056 228.078 36.0193 227.142 35.5131 226.492C33.536 223.951 31.7478 221.355 30.1575 218.71C29.7333 218.004 28.8204 217.773 28.1121 218.189C26.9992 216.25 25.9888 214.283 25.0848 212.291C25.8359 211.961 26.1828 211.086 25.8598 210.33C24.6142 207.412 23.603 204.446 22.8368 201.436C22.6339 200.639 21.8282 200.156 21.0314 200.348C20.5393 198.189 20.1696 196.008 19.9263 193.807C20.7419 193.728 21.3446 193.008 21.2757 192.189C21.1449 190.635 21.0787 189.072 21.0787 187.5C21.0787 185.928 21.1449 184.365 21.2757 182.811C21.3446 181.992 20.7419 181.272 19.9263 181.193C20.1696 178.992 20.5393 176.811 21.0314 174.652C21.8282 174.844 22.6339 174.361 22.8368 173.564C23.603 170.554 24.6142 167.588 25.8598 164.67C26.1828 163.914 25.8359 163.039 25.0848 162.709C25.9888 160.717 26.9992 158.75 28.1121 156.811C28.8204 157.227 29.7333 156.996 30.1575 156.29C31.7478 153.645 33.536 151.049 35.5131 148.508C36.0193 147.858 35.9056 146.922 35.2608 146.411C36.6303 144.712 38.0821 143.04 39.6132 141.397C40.2112 141.963 41.1547 141.941 41.7259 141.346C43.8725 139.11 46.1714 136.928 48.6152 134.802C49.2378 134.261 49.3058 133.319 48.769 132.694C50.431 131.286 52.1552 129.904 53.9394 128.55C54.4338 129.21 55.3689 129.348 56.0324 128.856C58.5404 126.999 61.1654 125.195 63.9015 123.448C64.5977 123.004 64.8032 122.081 64.3628 121.383C66.2116 120.229 68.1081 119.101 70.0507 118C70.4542 118.72 71.3642 118.979 72.0866 118.578C74.8275 117.057 77.6593 115.59 80.5768 114.179C81.3208 113.819 81.6332 112.926 81.2768 112.181C83.2536 111.245 85.2679 110.334 87.3182 109.45C87.6422 110.21 88.5198 110.565 89.2812 110.244C92.1762 109.022 95.1426 107.852 98.1763 106.738C98.9522 106.453 99.3509 105.594 99.0687 104.817C101.136 104.074 103.232 103.357 105.358 102.665C105.611 103.452 106.453 103.886 107.24 103.635C110.244 102.68 113.305 101.777 116.418 100.927C117.216 100.709 117.687 99.8875 117.472 99.0897C119.592 98.5257 121.735 97.9865 123.902 97.4727C124.09 98.2774 124.894 98.7786 125.699 98.5926C128.78 97.8817 131.906 97.2223 135.074 96.6163C135.886 96.4609 136.419 95.6776 136.266 94.8654C138.429 94.4645 140.611 94.0883 142.812 93.7374C142.94 94.5539 143.704 95.1136 144.522 94.9879C147.654 94.5063 150.822 94.0761 154.024 93.6989C154.845 93.6022 155.433 92.8589 155.339 92.0378C157.522 91.7925 159.721 91.5717 161.934 91.3759C162.005 92.1995 162.729 92.8111 163.553 92.7425C166.712 92.4799 169.9 92.2685 173.114 92.1098C173.94 92.069 174.577 91.3672 174.538 90.5415Z" stroke="url(#paint2_linear_2328_17332)" stroke-width="3" stroke-linecap="round" stroke-linejoin="round" stroke-dasharray="10 10"/>
<path d="M164.709 204.101L185.461 214.431C186.194 214.795 187.053 214.263 187.053 213.444V183.199L164.094 171.772C162.942 171.199 162 171.782 162 173.069V199.728C162.001 201.581 163.05 203.275 164.709 204.101Z" fill="black"/>
<path d="M187.055 160.787V183.198L210.359 171.599C211.42 171.07 210.472 170.001 209.388 169.519L189.049 160.48C187.953 159.993 187.055 159.586 187.055 160.787Z" fill="black"/>
<defs>
  <!-- Gradien paint0 -->
  <linearGradient id="paint0_linear_2328_17332" x1="0" y1="0" x2="375" y2="0" gradientUnits="userSpaceOnUse">
    <stop stop-color="white"/>
    <stop offset="1"/>
    <!-- Animasi memutar gradien -->
    <animate attributeName="x1" values="0; 375; 375; 0; 0" dur="6s" repeatCount="indefinite"/>
    <animate attributeName="y1" values="0; 0; 375; 375; 0" dur="6s" repeatCount="indefinite"/>
    <animate attributeName="x2" values="375; 375; 0; 0; 375" dur="6s" repeatCount="indefinite"/>
    <animate attributeName="y2" values="0; 375; 375; 0; 0" dur="6s" repeatCount="indefinite"/>
  </linearGradient>

  <!-- Gradien paint1 -->
  <linearGradient id="paint1_linear_2328_17332" x1="375" y1="0" x2="0" y2="375" gradientUnits="userSpaceOnUse">
    <stop stop-color="white"/>
    <stop offset="1"/>
    <!-- Animasi memutar gradien -->
    <animate attributeName="x1" values="375; 0; 0; 375; 375" dur="6s" repeatCount="indefinite"/>
    <animate attributeName="y1" values="0; 0; 375; 375; 0" dur="6s" repeatCount="indefinite"/>
    <animate attributeName="x2" values="0; 0; 375; 375; 0" dur="6s" repeatCount="indefinite"/>
    <animate attributeName="y2" values="375; 375; 0; 0; 375" dur="6s" repeatCount="indefinite"/>
  </linearGradient>

  <!-- Gradien paint2 -->
  <linearGradient id="paint2_linear_2328_17332" x1="187.5" y1="90.2561" x2="187.5" y2="284.744" gradientUnits="userSpaceOnUse">
    <stop stop-color="white"/>
    <stop offset="1"/>
    <!-- Animasi memutar gradien -->
    <animate attributeName="x1" values="0; 375; 375; 0; 0" dur="6s" repeatCount="indefinite"/>
    <animate attributeName="y1" values="0; 0; 375; 375; 0" dur="6s" repeatCount="indefinite"/>
    <animate attributeName="x2" values="375; 375; 0; 0; 375" dur="6s" repeatCount="indefinite"/>
    <animate attributeName="y2" values="0; 375; 375; 0; 0" dur="6s" repeatCount="indefinite"/>
  </linearGradient>
</defs>


</svg>

