<svg width="163" height="30" viewBox="0 0 163 30" fill="none" xmlns="http://www.w3.org/2000/svg">
<path d="M30.6419 0H0V30H30.6419V0Z" fill="#B4EF21"/>
<path d="M7.43074 22.521L15.8735 26.6353C16.1715 26.7805 16.5213 26.5685 16.5213 26.2423V14.1953L7.18053 9.64356C6.71181 9.4153 6.32845 9.64785 6.32845 10.1602V20.7789C6.32893 21.5172 6.75571 22.1919 7.43074 22.521Z" fill="black"/>
<path d="M16.5217 5.26801V14.1948L26.0029 9.5748C26.4345 9.36421 26.0487 8.93826 25.6078 8.74629L17.3333 5.14576C16.887 4.95189 16.5217 4.79 16.5217 5.26801Z" fill="black"/>
<path d="M113.57 26.8503H116.788L118.456 3.36584H115.24L113.57 26.8503Z" fill="black"/>
<path d="M120.564 26.8487H123.78L124.969 10.1105H121.753L120.564 26.8487Z" fill="black"/>
<path d="M136.97 9.86035C134.667 9.86035 132.518 11.0588 131.171 12.8588L131.286 11.2412C131.327 10.6623 130.884 10.1935 130.296 10.1935H128.314L127.129 26.8488H130.345L130.978 17.9543C131.172 15.2227 133.199 12.8905 136.179 12.8905C138.752 12.8905 140.691 14.6558 140.477 17.6875L139.826 26.8488H143.042L143.697 17.6212C144.071 12.3583 140.999 9.86035 136.97 9.86035Z" fill="black"/>
<path d="M154.243 16.9216L162.134 10.1919H157.869L149.455 17.5879L150.406 4.20099C150.439 3.73818 150.085 3.36279 149.614 3.36279H147.25L145.582 26.8472H148.798L149.196 21.2513L151.684 19.1196L157.364 26.8472H161.663L154.243 16.9216Z" fill="black"/>
<path d="M62.6465 18.7187L57.2367 4.66089H53.6439L42 26.7599H45.4978L48.0702 21.7096H60.1982L62.0536 26.7599H65.7428L63.7036 21.4609M49.5578 18.8031L55.1438 7.91115L59.1502 18.8031H49.5578Z" fill="black"/>
<path d="M87.9046 6.55286H85.8654L85.5743 10.6564H82.3661L82.1638 13.4981H85.3721L84.7791 21.8317C84.5508 25.0518 86.0339 26.7569 89.5301 26.7569C90.4279 26.7569 91.2737 26.5986 91.6674 26.4734L91.862 23.7267C91.1771 23.885 90.598 23.9167 89.8917 23.9167C88.1589 23.9167 87.736 23.095 87.8264 21.8332L88.4194 13.4996H92.9115L93.1137 10.6579H88.6216L88.8422 7.5463C88.8821 6.99756 88.4607 6.55286 87.9046 6.55286Z" fill="black"/>
<path d="M108.235 12.5981C106.958 10.7499 104.96 9.59509 102.613 9.59509C98.1512 9.59509 94.4435 13.1604 94.0866 18.1775C93.7296 23.1946 96.9317 26.7599 101.393 26.7599C103.641 26.7599 105.763 25.7031 107.261 23.9544L107.062 26.7599H110.249L111.445 9.92674H109.481C108.899 9.92674 108.393 10.3911 108.352 10.9639L108.235 12.5981ZM102.135 23.8534C99.1486 23.8534 97.137 21.4775 97.3729 18.176C97.6073 14.876 99.956 12.4986 102.942 12.4986C105.96 12.4986 108.006 14.8745 107.771 18.176C107.537 21.4775 105.154 23.8534 102.135 23.8534Z" fill="black"/>
<path d="M74.3823 10.8673C77.854 10.8673 80.618 12.9613 81.4223 16.1588H78.9357C78.1743 14.2623 76.5855 12.9839 74.2322 12.9839C71.0056 12.9839 68.3612 15.5196 68.1283 18.8045C67.8955 22.0894 70.1798 24.6236 73.4049 24.6236C75.7566 24.6236 77.5277 23.3452 78.5588 21.4487H81.0454C79.7876 24.6447 76.7264 26.7402 73.2547 26.7402C68.7075 26.7402 65.4579 23.2789 65.7766 18.8045C66.0937 14.3286 69.8351 10.8673 74.3823 10.8673Z" fill="black"/>
<path d="M73.2547 27.0071C70.9903 27.0071 68.948 26.1689 67.5078 24.6493C66.0554 23.1176 65.3445 21.0342 65.5038 18.7849C65.6632 16.5508 66.6575 14.4839 68.306 12.9613C69.9561 11.4372 72.1148 10.599 74.3823 10.599C77.9812 10.599 80.8478 12.7563 81.6858 16.094L81.7701 16.4272H78.7488L78.6814 16.2568C77.9031 14.3196 76.3235 13.2523 74.2322 13.2523C71.1327 13.2523 68.6263 15.6462 68.401 18.8226C68.2907 20.3844 68.7687 21.8136 69.7477 22.8462C70.67 23.8186 71.9693 24.3553 73.4064 24.3553C75.5115 24.3553 77.2565 23.2789 78.3198 21.3221L78.3964 21.1804H81.4437L81.2997 21.5452C79.9944 24.8633 76.8367 27.0071 73.2547 27.0071ZM74.3823 11.1357C70.0143 11.1357 66.3541 14.5126 66.0477 18.8226C65.8991 20.9226 66.5579 22.8628 67.9062 24.2844C69.2437 25.6955 71.1419 26.4719 73.2547 26.4719C76.4767 26.4719 79.3325 24.6191 80.6378 21.7186H78.7212C77.5522 23.7673 75.6693 24.8935 73.4048 24.8935C71.8145 24.8935 70.3744 24.2965 69.3479 23.2141C68.2647 22.0714 67.7346 20.499 67.8556 18.7864C67.9736 17.1297 68.6875 15.598 69.8672 14.4704C71.0515 13.3397 72.602 12.7171 74.2322 12.7171C76.5012 12.7171 78.2294 13.8432 79.118 15.892H81.0653C80.1859 12.99 77.5997 11.1357 74.3823 11.1357Z" fill="black"/>
<path d="M122.412 2.99653L121.991 8.30758L127.949 5.93925L122.418 2.99351C122.415 2.992 122.412 2.99351 122.412 2.99653Z" fill="black"/>
</svg>
