<svg width="208" height="266" viewBox="0 0 208 266" fill="none" xmlns="http://www.w3.org/2000/svg">
<g clip-path="url(#clip0_2306_555)">
<path d="M178.517 205.981C150.884 221.941 122.963 231.312 100.175 233.578C77.3358 235.848 59.8638 230.972 52.7987 218.731C45.7336 206.489 50.2481 188.914 63.6333 170.264C76.989 151.654 99.062 132.151 126.696 116.191C154.33 100.231 182.25 90.8601 205.038 88.5945C227.877 86.3238 245.349 91.2001 252.414 103.442C259.479 115.683 254.965 133.258 241.58 151.908C228.224 170.518 206.151 190.021 178.517 205.981Z" stroke="black"/>
<path d="M56.4695 199.827L51.6364 205.425L52.6838 212.408L47.1598 208.009L39.8951 209.396L44.7282 203.798L43.6807 196.814L49.2047 201.213L56.4695 199.827Z" fill="black"/>
</g>
<defs>
<clipPath id="clip0_2306_555">
<rect width="93.1116" height="252.927" fill="white" transform="translate(126.464) rotate(30)"/>
</clipPath>
</defs>
</svg>
