<svg width="221" height="274" viewBox="0 0 221 274" fill="none" xmlns="http://www.w3.org/2000/svg">
<g clip-path="url(#clip0_2328_17674)">
<path d="M108.517 165.981C80.8835 181.941 52.9631 191.312 30.1746 193.578C7.33576 195.848 -10.1362 190.972 -17.2013 178.731C-24.2664 166.489 -19.7519 148.914 -6.3667 130.264C6.98896 111.654 29.062 92.1515 56.6958 76.1914C84.3295 60.2314 112.25 50.8602 135.038 48.5945C157.877 46.3239 175.349 51.2002 182.414 63.4416C189.479 75.683 184.965 93.2577 171.58 111.908C158.224 130.518 136.151 150.021 108.517 165.981Z" stroke="black"/>
<path d="M175.624 92.6978L179.78 98.8151L186.797 99.6107L181.118 103.808L180.577 111.184L176.421 105.067L169.404 104.271L175.083 100.074L175.624 92.6978Z" fill="black"/>
</g>
<defs>
<clipPath id="clip0_2328_17674">
<rect width="107.334" height="252.927" fill="white" transform="translate(127.263 0.87616) rotate(30)"/>
</clipPath>
</defs>
</svg>
