<svg width="92" height="104" viewBox="0 0 92 104" fill="none" xmlns="http://www.w3.org/2000/svg">
<path d="M38.3732 18.3517C39.7866 6.61208 56.9247 6.61207 58.3381 18.3517C59.2956 26.3048 67.7282 31.1306 75.0835 27.9783C80.5071 25.6539 85.3159 28.1816 87.6381 32.2651C89.9619 36.3515 89.7008 41.8339 84.9822 45.3927C78.6163 50.1937 78.6163 59.9113 84.9822 64.7123C89.7008 68.2711 89.9619 73.7535 87.6381 77.8399C85.316 81.9234 80.5071 84.4511 75.0835 82.1267C67.7282 78.9744 59.2956 83.8002 58.3381 91.7533C56.9247 103.493 39.7866 103.493 38.3732 91.7533C37.4157 83.8002 28.9831 78.9744 21.6279 82.1267C16.2043 84.4511 11.3954 81.9234 9.07325 77.8399C6.74949 73.7535 7.01051 68.2711 11.7292 64.7123C18.095 59.9113 18.095 50.1937 11.7292 45.3927C7.01051 41.8339 6.74949 36.3515 9.07325 32.2651C11.3954 28.1816 16.2043 25.6539 21.6279 27.9783C28.9831 31.1306 37.4157 26.3048 38.3732 18.3517Z" fill="black" stroke="black" stroke-width="2"/>
<path d="M33.7441 13.7063C35.1575 1.96669 52.2956 1.96668 53.709 13.7063C54.6665 21.6594 63.0991 26.4852 70.4543 23.3329C75.8779 21.0085 80.6868 23.5362 83.0089 27.6198C85.3327 31.7061 85.0717 37.1886 80.353 40.7473C73.9872 45.5483 73.9872 55.2659 80.353 60.067C85.0717 63.6257 85.3327 69.1081 83.009 73.1945C80.6868 77.278 75.8779 79.8057 70.4543 77.4813C63.0991 74.329 54.6665 79.1548 53.709 87.1079C52.2956 98.8475 35.1575 98.8475 33.7441 87.1079C32.7866 79.1548 24.354 74.329 16.9987 77.4813C11.5751 79.8057 6.76624 77.278 4.4441 73.1945C2.12034 69.1081 2.38136 63.6257 7.10002 60.067C13.4659 55.2659 13.4659 45.5483 7.10003 40.7473C2.38136 37.1886 2.12034 31.7061 4.4441 27.6198C6.76624 23.5362 11.5751 21.0085 16.9987 23.3329C24.354 26.4852 32.7866 21.6594 33.7441 13.7063Z" fill="white" stroke="black" stroke-width="2"/>
</svg>
