<svg width="37" height="37" viewBox="0 0 37 37" fill="none" xmlns="http://www.w3.org/2000/svg">
<circle cx="8.5" cy="15.5" r="7.5" stroke="#92C60F" stroke-width="2"/>
<rect x="6" y="15.583" width="27" height="21.25" rx="4" fill="#CEF906"/>
<path d="M14.333 15.5833V9.91667C14.333 8.41377 14.93 6.97243 15.9927 5.90973C17.0554 4.84702 18.4968 4.25 19.9997 4.25C21.5026 4.25 22.9439 4.84702 24.0066 5.90973C25.0693 6.97243 25.6663 8.41377 25.6663 9.91667V15.5833M10.083 18.4167C10.083 17.6652 10.3815 16.9446 10.9129 16.4132C11.4442 15.8818 12.1649 15.5833 12.9163 15.5833H27.083C27.8345 15.5833 28.5551 15.8818 29.0865 16.4132C29.6178 16.9446 29.9163 17.6652 29.9163 18.4167V26.9167C29.9163 27.6681 29.6178 28.3888 29.0865 28.9201C28.5551 29.4515 27.8345 29.75 27.083 29.75H12.9163C12.1649 29.75 11.4442 29.4515 10.9129 28.9201C10.3815 28.3888 10.083 27.6681 10.083 26.9167V18.4167ZM18.583 22.6667C18.583 23.0424 18.7323 23.4027 18.9979 23.6684C19.2636 23.9341 19.624 24.0833 19.9997 24.0833C20.3754 24.0833 20.7357 23.9341 21.0014 23.6684C21.2671 23.4027 21.4163 23.0424 21.4163 22.6667C21.4163 22.2909 21.2671 21.9306 21.0014 21.6649C20.7357 21.3993 20.3754 21.25 19.9997 21.25C19.624 21.25 19.2636 21.3993 18.9979 21.6649C18.7323 21.9306 18.583 22.2909 18.583 22.6667Z" stroke="black" stroke-width="2.5" stroke-linecap="round" stroke-linejoin="round"/>
</svg>
