<svg width="48" height="41" viewBox="0 0 48 41" fill="none" xmlns="http://www.w3.org/2000/svg">
<g id="tabler-icon-cash-banknote">
<circle id="Ellipse 40" cx="39.1666" cy="32.5" r="7.5" stroke="#CEF906" stroke-width="2"/>
<rect id="Rectangle 23037" x="0.666626" width="27" height="21.25" rx="4" fill="#92C60F"/>
<path id="Vector" d="M35.6666 23H35.68M19.6666 23H19.68M23.6666 23C23.6666 24.0609 24.0881 25.0783 24.8382 25.8284C25.5883 26.5786 26.6058 27 27.6666 27C28.7275 27 29.7449 26.5786 30.4951 25.8284C31.2452 25.0783 31.6666 24.0609 31.6666 23C31.6666 21.9391 31.2452 20.9217 30.4951 20.1716C29.7449 19.4214 28.7275 19 27.6666 19C26.6058 19 25.5883 19.4214 24.8382 20.1716C24.0881 20.9217 23.6666 21.9391 23.6666 23ZM15.6666 17.6667C15.6666 16.9594 15.9476 16.2811 16.4477 15.781C16.9478 15.281 17.626 15 18.3333 15H37C37.7072 15 38.3855 15.281 38.8856 15.781C39.3857 16.2811 39.6666 16.9594 39.6666 17.6667V28.3333C39.6666 29.0406 39.3857 29.7189 38.8856 30.219C38.3855 30.719 37.7072 31 37 31H18.3333C17.626 31 16.9478 30.719 16.4477 30.219C15.9476 29.7189 15.6666 29.0406 15.6666 28.3333V17.6667Z" stroke="black" stroke-width="2.5" stroke-linecap="round" stroke-linejoin="round"/>
</g>
</svg>
