<svg width="45" height="38" viewBox="0 0 45 38" fill="none" xmlns="http://www.w3.org/2000/svg">
<circle cx="8.83334" cy="29.5" r="7.5" stroke="#CEF906" stroke-width="2"/>
<rect x="17.3333" width="27" height="21.25" rx="4" fill="#92C60F"/>
<path d="M30.25 19.4167V18H33.0833L20.3333 5.25L7.58334 18H10.4167V27.9167C10.4167 28.6681 10.7152 29.3888 11.2465 29.9201C11.7779 30.4515 12.4986 30.75 13.25 30.75H16.7917M16.0833 30.75V22.25C16.0833 21.4986 16.3819 20.7779 16.9132 20.2465C17.4446 19.7152 18.1652 19.4167 18.9167 19.4167H21.75C22.5015 19.4167 23.2221 19.7152 23.7535 20.2465C24.2848 20.7779 24.5833 21.4986 24.5833 22.25M21.75 32.1667L26 27.9167L28.8333 30.75L34.5 25.0833M34.5 25.0833H30.25M34.5 25.0833V29.3333" stroke="black" stroke-width="2.5" stroke-linecap="round" stroke-linejoin="round"/>
</svg>
