<svg width="476" height="81" viewBox="0 0 476 81" fill="none" xmlns="http://www.w3.org/2000/svg">
<path d="M89.0726 21.496L79.7126 55H71.7926L65.5046 31.144L58.9286 55L51.0566 55.048L42.0326 21.496H49.2326L55.1366 47.512L61.9526 21.496H69.4406L75.8726 47.368L81.8246 21.496H89.0726ZM118.18 41.128C118.18 42.088 118.116 42.952 117.988 43.72H98.5484C98.7084 45.64 99.3804 47.144 100.564 48.232C101.748 49.32 103.204 49.864 104.932 49.864C107.428 49.864 109.204 48.792 110.26 46.648H117.508C116.74 49.208 115.268 51.32 113.092 52.984C110.916 54.616 108.244 55.432 105.076 55.432C102.516 55.432 100.212 54.872 98.1644 53.752C96.1484 52.6 94.5644 50.984 93.4124 48.904C92.2924 46.824 91.7324 44.424 91.7324 41.704C91.7324 38.952 92.2924 36.536 93.4124 34.456C94.5324 32.376 96.1004 30.776 98.1164 29.656C100.132 28.536 102.452 27.976 105.076 27.976C107.604 27.976 109.86 28.52 111.844 29.608C113.86 30.696 115.412 32.248 116.5 34.264C117.62 36.248 118.18 38.536 118.18 41.128ZM111.22 39.208C111.188 37.48 110.564 36.104 109.348 35.08C108.132 34.024 106.644 33.496 104.884 33.496C103.22 33.496 101.812 34.008 100.66 35.032C99.5404 36.024 98.8524 37.416 98.5964 39.208H111.22ZM129.805 32.296C130.669 31.016 131.853 29.976 133.357 29.176C134.893 28.376 136.637 27.976 138.589 27.976C140.861 27.976 142.909 28.536 144.733 29.656C146.589 30.776 148.045 32.376 149.101 34.456C150.189 36.504 150.733 38.888 150.733 41.608C150.733 44.328 150.189 46.744 149.101 48.856C148.045 50.936 146.589 52.552 144.733 53.704C142.909 54.856 140.861 55.432 138.589 55.432C136.605 55.432 134.861 55.048 133.357 54.28C131.885 53.48 130.701 52.456 129.805 51.208V55H123.085V19.48H129.805V32.296ZM143.869 41.608C143.869 40.008 143.533 38.632 142.861 37.48C142.221 36.296 141.357 35.4 140.269 34.792C139.213 34.184 138.061 33.88 136.813 33.88C135.597 33.88 134.445 34.2 133.357 34.84C132.301 35.448 131.437 36.344 130.765 37.528C130.125 38.712 129.805 40.104 129.805 41.704C129.805 43.304 130.125 44.696 130.765 45.88C131.437 47.064 132.301 47.976 133.357 48.616C134.445 49.224 135.597 49.528 136.813 49.528C138.061 49.528 139.213 49.208 140.269 48.568C141.357 47.928 142.221 47.016 142.861 45.832C143.533 44.648 143.869 43.24 143.869 41.608ZM154.945 29.224C155.105 26.024 156.225 23.56 158.305 21.832C160.417 20.072 163.185 19.192 166.609 19.192C168.945 19.192 170.945 19.608 172.609 20.44C174.273 21.24 175.521 22.344 176.353 23.752C177.217 25.128 177.649 26.696 177.649 28.456C177.649 30.472 177.121 32.184 176.065 33.592C175.041 34.968 173.809 35.896 172.369 36.376V36.568C174.225 37.144 175.665 38.168 176.689 39.64C177.745 41.112 178.273 43 178.273 45.304C178.273 47.224 177.825 48.936 176.929 50.44C176.065 51.944 174.769 53.128 173.041 53.992C171.345 54.824 169.297 55.24 166.897 55.24C163.281 55.24 160.337 54.328 158.065 52.504C155.793 50.68 154.593 47.992 154.465 44.44H160.993C161.057 46.008 161.585 47.272 162.577 48.232C163.601 49.16 164.993 49.624 166.753 49.624C168.385 49.624 169.633 49.176 170.497 48.28C171.393 47.352 171.841 46.168 171.841 44.728C171.841 42.808 171.233 41.432 170.017 40.6C168.801 39.768 166.913 39.352 164.353 39.352H162.961V33.832H164.353C168.897 33.832 171.169 32.312 171.169 29.272C171.169 27.896 170.753 26.824 169.921 26.056C169.121 25.288 167.953 24.904 166.417 24.904C164.913 24.904 163.745 25.32 162.913 26.152C162.113 26.952 161.649 27.976 161.521 29.224H154.945ZM202.509 26.92V35.32H213.789V40.648H202.509V49.528H215.229V55H195.789V21.448H215.229V26.92H202.509ZM236.023 55L230.551 46.744L225.703 55H218.503L227.191 41.656L218.407 28.408H225.991L231.415 36.616L236.311 28.408H243.511L234.775 41.656L243.607 55H236.023ZM245.529 41.704C245.529 38.952 246.089 36.552 247.209 34.504C248.329 32.424 249.881 30.824 251.865 29.704C253.849 28.552 256.121 27.976 258.681 27.976C261.977 27.976 264.697 28.808 266.841 30.472C269.017 32.104 270.473 34.408 271.209 37.384H263.961C263.577 36.232 262.921 35.336 261.993 34.696C261.097 34.024 259.977 33.688 258.633 33.688C256.713 33.688 255.193 34.392 254.073 35.8C252.953 37.176 252.393 39.144 252.393 41.704C252.393 44.232 252.953 46.2 254.073 47.608C255.193 48.984 256.713 49.672 258.633 49.672C261.353 49.672 263.129 48.456 263.961 46.024H271.209C270.473 48.904 269.017 51.192 266.841 52.888C264.665 54.584 261.945 55.432 258.681 55.432C256.121 55.432 253.849 54.872 251.865 53.752C249.881 52.6 248.329 51 247.209 48.952C246.089 46.872 245.529 44.456 245.529 41.704ZM300.852 41.128C300.852 42.088 300.788 42.952 300.66 43.72H281.22C281.38 45.64 282.052 47.144 283.236 48.232C284.42 49.32 285.876 49.864 287.604 49.864C290.1 49.864 291.876 48.792 292.932 46.648H300.18C299.412 49.208 297.94 51.32 295.764 52.984C293.588 54.616 290.916 55.432 287.748 55.432C285.188 55.432 282.884 54.872 280.836 53.752C278.82 52.6 277.236 50.984 276.084 48.904C274.964 46.824 274.404 44.424 274.404 41.704C274.404 38.952 274.964 36.536 276.084 34.456C277.204 32.376 278.772 30.776 280.788 29.656C282.804 28.536 285.124 27.976 287.748 27.976C290.276 27.976 292.532 28.52 294.516 29.608C296.532 30.696 298.084 32.248 299.172 34.264C300.292 36.248 300.852 38.536 300.852 41.128ZM293.892 39.208C293.86 37.48 293.236 36.104 292.02 35.08C290.804 34.024 289.316 33.496 287.556 33.496C285.892 33.496 284.484 34.008 283.332 35.032C282.212 36.024 281.524 37.416 281.268 39.208H293.892ZM312.477 19.48V55H305.757V19.48H312.477ZM325.837 19.48V55H319.117V19.48H325.837ZM357.196 41.128C357.196 42.088 357.132 42.952 357.004 43.72H337.564C337.724 45.64 338.396 47.144 339.58 48.232C340.764 49.32 342.22 49.864 343.948 49.864C346.444 49.864 348.22 48.792 349.276 46.648H356.524C355.756 49.208 354.284 51.32 352.108 52.984C349.932 54.616 347.26 55.432 344.092 55.432C341.532 55.432 339.228 54.872 337.18 53.752C335.164 52.6 333.58 50.984 332.428 48.904C331.308 46.824 330.748 44.424 330.748 41.704C330.748 38.952 331.308 36.536 332.428 34.456C333.548 32.376 335.116 30.776 337.132 29.656C339.148 28.536 341.468 27.976 344.092 27.976C346.62 27.976 348.876 28.52 350.86 29.608C352.876 30.696 354.428 32.248 355.516 34.264C356.636 36.248 357.196 38.536 357.196 41.128ZM350.236 39.208C350.204 37.48 349.58 36.104 348.364 35.08C347.148 34.024 345.66 33.496 343.9 33.496C342.236 33.496 340.828 34.008 339.676 35.032C338.556 36.024 337.868 37.416 337.612 39.208H350.236ZM376.837 28.024C380.005 28.024 382.565 29.032 384.517 31.048C386.469 33.032 387.445 35.816 387.445 39.4V55H380.725V40.312C380.725 38.2 380.197 36.584 379.141 35.464C378.085 34.312 376.645 33.736 374.821 33.736C372.965 33.736 371.493 34.312 370.405 35.464C369.349 36.584 368.821 38.2 368.821 40.312V55H362.101V28.408H368.821V31.72C369.717 30.568 370.853 29.672 372.229 29.032C373.637 28.36 375.173 28.024 376.837 28.024ZM392.107 41.704C392.107 38.952 392.667 36.552 393.787 34.504C394.907 32.424 396.459 30.824 398.443 29.704C400.427 28.552 402.699 27.976 405.259 27.976C408.555 27.976 411.275 28.808 413.419 30.472C415.595 32.104 417.051 34.408 417.787 37.384H410.539C410.155 36.232 409.499 35.336 408.571 34.696C407.675 34.024 406.555 33.688 405.211 33.688C403.291 33.688 401.771 34.392 400.651 35.8C399.531 37.176 398.971 39.144 398.971 41.704C398.971 44.232 399.531 46.2 400.651 47.608C401.771 48.984 403.291 49.672 405.211 49.672C407.931 49.672 409.707 48.456 410.539 46.024H417.787C417.051 48.904 415.595 51.192 413.419 52.888C411.243 54.584 408.523 55.432 405.259 55.432C402.699 55.432 400.427 54.872 398.443 53.752C396.459 52.6 394.907 51 393.787 48.952C392.667 46.872 392.107 44.456 392.107 41.704ZM447.43 41.128C447.43 42.088 447.366 42.952 447.238 43.72H427.798C427.958 45.64 428.63 47.144 429.814 48.232C430.998 49.32 432.454 49.864 434.182 49.864C436.678 49.864 438.454 48.792 439.51 46.648H446.758C445.99 49.208 444.518 51.32 442.342 52.984C440.166 54.616 437.494 55.432 434.326 55.432C431.766 55.432 429.462 54.872 427.414 53.752C425.398 52.6 423.814 50.984 422.662 48.904C421.542 46.824 420.982 44.424 420.982 41.704C420.982 38.952 421.542 36.536 422.662 34.456C423.782 32.376 425.35 30.776 427.366 29.656C429.382 28.536 431.702 27.976 434.326 27.976C436.854 27.976 439.11 28.52 441.094 29.608C443.11 30.696 444.662 32.248 445.75 34.264C446.87 36.248 447.43 38.536 447.43 41.128ZM440.47 39.208C440.438 37.48 439.814 36.104 438.598 35.08C437.382 34.024 435.894 33.496 434.134 33.496C432.47 33.496 431.062 34.008 429.91 35.032C428.79 36.024 428.102 37.416 427.846 39.208H440.47Z" fill="#333333"/>
<rect x="8.5" y="7" width="8" height="8" fill="#000509"/>
<rect x="233.5" y="7" width="8" height="8" fill="#000509"/>
<rect x="459.5" y="7" width="8" height="8" fill="#000509"/>
<rect x="459.5" y="64" width="8" height="8" fill="#000509"/>
<rect x="233.5" y="64" width="8" height="8" fill="#000509"/>
<rect x="8.5" y="64" width="8" height="8" fill="#000509"/>
<path d="M463.5 11.5H12.5V68.5H463.5V11.5Z" stroke="black" stroke-width="2"/>
</svg>
